<svg xmlns="http://www.w3.org/2000/svg"  version="1.0">
    <path fill="#412F2C" d="M 88.007812 48.8125 L 82.378906 38.402344 L 84.324219 28.660156 C 76.144531 7.523438 62.28125 0.199219 44.257812 0.199219 C 26.238281 0.199219 12.375 7.523438 4.195312 28.660156 L 6.136719 38.402344 L 0.507812 48.8125 C 2.320312 64.652344 18.5625 72.207031 44.257812 72.207031 C 69.953125 72.207031 86.195312 64.652344 88.007812 48.8125"/>
    <path fill="#FAF6EA" d="M 48.566406 18.480469 C 45.847656 19.765625 42.667969 19.765625 39.953125 18.480469 C 37.53125 17.335938 34.027344 16.523438 29.300781 17.359375 C 19.464844 19.09375 11.910156 32.308594 9.691406 42.460938 C 7.472656 52.617188 13.613281 64.496094 44.257812 64.496094 C 74.902344 64.496094 81.046875 52.617188 78.828125 42.460938 C 76.605469 32.308594 69.054688 19.09375 59.21875 17.359375 C 54.488281 16.523438 50.988281 17.335938 48.566406 18.480469"/>
    <path fill="#5E4642" d="M 28.921875 27.882812 C 22.152344 25.882812 10.132812 27.539062 4.195312 28.660156 C 3.480469 30.496094 2.8125 32.4375 2.1875 34.492188 C 0.554688 39.855469 0.03125 44.621094 0.507812 48.8125 C 11.289062 46.296875 22.667969 46.542969 28.941406 45.328125 C 36.867188 43.796875 38.472656 30.707031 28.921875 27.882812"/>
    <path fill="#5E4642" d="M 59.59375 27.882812 C 66.363281 25.882812 78.382812 27.539062 84.324219 28.660156 C 85.035156 30.496094 85.703125 32.4375 86.328125 34.492188 C 87.960938 39.855469 88.488281 44.621094 88.007812 48.8125 C 77.230469 46.296875 65.851562 46.542969 59.574219 45.328125 C 51.648438 43.796875 50.046875 30.707031 59.59375 27.882812"/>
    <path fill="#918A76" d="M 29.101562 33.554688 C 27.558594 33.554688 26.308594 35.125 26.308594 37.058594 C 26.308594 38.996094 27.558594 40.5625 29.101562 40.5625 C 30.644531 40.5625 31.894531 38.996094 31.894531 37.058594 C 31.894531 35.125 30.644531 33.554688 29.101562 33.554688"/>
    <path fill="#918A76" d="M 59.414062 33.554688 C 57.875 33.554688 56.625 35.125 56.625 37.058594 C 56.625 38.996094 57.875 40.5625 59.414062 40.5625 C 60.957031 40.5625 62.207031 38.996094 62.207031 37.058594 C 62.207031 35.125 60.957031 33.554688 59.414062 33.554688"/>
    <path fill="#918A76" d="M 50.488281 45.519531 C 49.796875 45.300781 49.054688 45.671875 48.835938 46.363281 C 48.832031 46.371094 48.589844 47.046875 47.914062 47.703125 C 47.292969 48.296875 46.507812 48.6875 45.578125 48.871094 L 45.578125 42.847656 C 47.472656 42.347656 49.09375 40.867188 49.566406 39.390625 C 50.144531 37.578125 47.40625 36.699219 44.257812 36.699219 C 41.109375 36.699219 38.371094 37.578125 38.953125 39.390625 C 39.417969 40.851562 41.011719 42.324219 42.882812 42.835938 L 42.941406 42.835938 L 42.941406 48.867188 C 40.410156 48.359375 39.714844 46.460938 39.6875 46.378906 C 39.464844 45.6875 38.722656 45.308594 38.03125 45.527344 C 37.339844 45.75 36.957031 46.492188 37.179688 47.183594 C 37.238281 47.363281 38.671875 51.625 44.257812 51.625 C 49.847656 51.625 51.28125 47.363281 51.339844 47.183594 C 51.5625 46.492188 51.179688 45.742188 50.488281 45.519531"/>
</svg>