<svg xmlns="http://www.w3.org/2000/svg" width="88.5" viewBox="0 0 88.5 72" height="72" version="1.0"><defs><clipPath id="a"><path d="M 26.582031 21.800781 L 61.832031 21.800781 L 61.832031 50.300781 L 26.582031 50.300781 Z M 26.582031 21.800781"/></clipPath><clipPath id="b"><path d="M 26.582031 32 L 41 32 L 41 42 L 26.582031 42 Z M 26.582031 32"/></clipPath><clipPath id="c"><path d="M 47 32 L 61.832031 32 L 61.832031 42 L 47 42 Z M 47 32"/></clipPath></defs><g clip-path="url(#a)"><path fill="#D1D6DE" d="M 61.632812 41.042969 L 59.390625 36.921875 L 60.164062 33.066406 C 56.90625 24.699219 51.386719 21.800781 44.210938 21.800781 C 37.03125 21.800781 31.511719 24.699219 28.253906 33.066406 L 29.027344 36.921875 L 26.789062 41.042969 C 27.507812 47.3125 33.976562 50.304688 44.210938 50.304688 C 54.441406 50.304688 60.910156 47.3125 61.632812 41.042969"/></g><path fill="#FFF" d="M 45.925781 29.039062 C 44.84375 29.546875 43.578125 29.546875 42.496094 29.039062 C 41.53125 28.585938 40.136719 28.261719 38.253906 28.59375 C 34.335938 29.28125 31.328125 34.511719 30.445312 38.53125 C 29.558594 42.550781 32.007812 47.25 44.210938 47.25 C 56.414062 47.25 58.859375 42.550781 57.976562 38.53125 C 57.089844 34.511719 54.085938 29.28125 50.167969 28.59375 C 48.285156 28.261719 46.890625 28.585938 45.925781 29.039062"/><g clip-path="url(#b)"><path fill="#A4A8B6" d="M 38.101562 32.761719 C 35.40625 31.96875 30.621094 32.621094 28.253906 33.066406 C 27.972656 33.792969 27.703125 34.5625 27.457031 35.375 C 26.804688 37.496094 26.597656 39.386719 26.789062 41.042969 C 31.078125 40.046875 35.609375 40.144531 38.109375 39.664062 C 41.265625 39.058594 41.90625 33.875 38.101562 32.761719"/></g><g clip-path="url(#c)"><path fill="#A4A8B6" d="M 50.316406 32.761719 C 53.011719 31.96875 57.800781 32.621094 60.164062 33.066406 C 60.449219 33.792969 60.714844 34.5625 60.964844 35.375 C 61.613281 37.496094 61.824219 39.386719 61.632812 41.042969 C 57.339844 40.046875 52.808594 40.144531 50.308594 39.664062 C 47.152344 39.058594 46.515625 33.875 50.316406 32.761719"/></g><path fill="#484B5D" d="M 38.171875 35.003906 C 37.558594 35.003906 37.0625 35.625 37.0625 36.390625 C 37.0625 37.15625 37.558594 37.777344 38.171875 37.777344 C 38.789062 37.777344 39.285156 37.15625 39.285156 36.390625 C 39.285156 35.625 38.789062 35.003906 38.171875 35.003906"/><path fill="#484B5D" d="M 50.246094 35.003906 C 49.632812 35.003906 49.132812 35.625 49.132812 36.390625 C 49.132812 37.15625 49.632812 37.777344 50.246094 37.777344 C 50.859375 37.777344 51.359375 37.15625 51.359375 36.390625 C 51.359375 35.625 50.859375 35.003906 50.246094 35.003906"/><path fill="#484B5D" d="M 46.691406 39.742188 C 46.414062 39.652344 46.121094 39.800781 46.03125 40.074219 C 46.03125 40.078125 45.933594 40.34375 45.664062 40.605469 C 45.417969 40.839844 45.105469 40.996094 44.734375 41.066406 L 44.734375 38.683594 C 45.488281 38.484375 46.136719 37.898438 46.324219 37.3125 C 46.554688 36.597656 45.464844 36.25 44.210938 36.25 C 42.957031 36.25 41.867188 36.597656 42.097656 37.3125 C 42.28125 37.894531 42.917969 38.476562 43.664062 38.679688 L 43.683594 38.679688 L 43.683594 41.066406 C 42.675781 40.863281 42.402344 40.113281 42.390625 40.082031 C 42.300781 39.808594 42.003906 39.65625 41.730469 39.742188 C 41.453125 39.832031 41.300781 40.125 41.390625 40.398438 C 41.414062 40.46875 41.984375 42.15625 44.210938 42.15625 C 46.433594 42.15625 47.007812 40.46875 47.027344 40.398438 C 47.117188 40.125 46.964844 39.828125 46.691406 39.742188"/></svg>